<svg width="160" height="40" viewBox="0 0 160 40" fill="none" xmlns="http://www.w3.org/2000/svg">
<path d="M14.2165 29.2078L8.13123 18.4799H5.52137V29.221H0V1.65344H10.3477C12.4854 1.65344 14.2952 2.03377 15.7903 2.78132C17.2854 3.52887 18.4133 4.53872 19.1609 5.82398C19.9084 7.09612 20.2887 8.52565 20.2887 10.1126C20.2887 11.9224 19.7641 13.5618 18.715 15.0306C17.6658 16.4864 16.092 17.4962 14.0198 18.0471L20.6166 29.221H14.2165V29.2078ZM5.52137 14.3355H10.1378C11.6329 14.3355 12.7608 13.9683 13.4952 13.247C14.2297 12.5257 14.5969 11.5158 14.5969 10.2306C14.5969 8.94532 14.2297 7.98794 13.4952 7.29285C12.7608 6.59776 11.646 6.24366 10.1378 6.24366H5.52137V14.3355Z" fill="#FFFCF9"/>
<path d="M42.2044 19.9354H26.2173C26.3484 21.5092 26.8993 22.7551 27.8698 23.6469C28.8403 24.5387 30.0469 24.9847 31.4633 24.9847C33.5223 24.9847 34.9781 24.106 35.8436 22.3354H41.8109C41.1814 24.4469 39.9748 26.165 38.1781 27.5289C36.3945 28.8798 34.1912 29.5618 31.5813 29.5618C29.4698 29.5618 27.5813 29.0896 25.9157 28.1585C24.2501 27.2273 22.9386 25.9027 22.0074 24.1846C21.0763 22.4797 20.6041 20.4994 20.6041 18.2698C20.6041 16.0403 21.0631 14.0206 21.9812 12.3026C22.8992 10.5976 24.1976 9.27301 25.8501 8.35497C27.5026 7.43693 29.4173 6.97791 31.5682 6.97791C33.719 6.97791 35.5027 7.42381 37.1551 8.31562C38.7945 9.20744 40.0797 10.4796 40.9847 12.1189C41.8896 13.7583 42.3486 15.6469 42.3486 17.7846C42.3617 18.5977 42.3093 19.3059 42.2044 19.9354ZM36.6305 16.2239C36.6043 14.8075 36.0928 13.6665 35.0961 12.814C34.0994 11.9616 32.8666 11.5288 31.4239 11.5288C30.06 11.5288 28.9059 11.9484 27.9747 12.7747C27.0435 13.6009 26.4665 14.755 26.2566 16.2239H36.6305Z" fill="#FFFCF9"/>
<path d="M58.1654 7.96033C59.3982 8.60296 60.3818 9.44231 61.09 10.4653V7.34393H66.6507V29.377C66.6507 31.3966 66.2441 33.2065 65.431 34.8065C64.6179 36.3934 63.3851 37.6656 61.7588 38.5967C60.1326 39.5279 58.1522 40 55.8309 40C52.7227 40 50.1784 39.2787 48.198 37.8229C46.2046 36.3803 45.0898 34.4 44.8275 31.895H50.3095C50.5981 32.8917 51.2276 33.6918 52.185 34.2819C53.1424 34.8721 54.3096 35.1737 55.6735 35.1737C57.2735 35.1737 58.585 34.6885 59.5818 33.7311C60.5785 32.7737 61.0769 31.318 61.0769 29.3638V25.9671C60.3687 26.99 59.385 27.8425 58.1391 28.5376C56.8932 29.2196 55.4637 29.5606 53.8506 29.5606C52.0145 29.5606 50.3227 29.0884 48.8013 28.1442C47.28 27.1999 46.0734 25.8622 45.1947 24.131C44.316 22.4129 43.8701 20.4326 43.8701 18.1899C43.8701 15.9473 44.316 14.0194 45.1947 12.3145C46.0734 10.6095 47.2669 9.28493 48.7882 8.36689C50.2964 7.44884 51.9882 6.98982 53.8637 6.98982C55.4899 6.98982 56.9194 7.30458 58.1654 7.96033ZM60.29 14.8194C59.7654 13.862 59.0572 13.1276 58.1522 12.603C57.2604 12.0915 56.303 11.8292 55.267 11.8292C54.2309 11.8292 53.2997 12.0784 52.421 12.5768C51.5554 13.0751 50.8472 13.8096 50.3095 14.767C49.7718 15.7243 49.4964 16.8653 49.4964 18.1768C49.4964 19.4883 49.7718 20.6424 50.3095 21.626C50.8472 22.6097 51.5554 23.3703 52.4473 23.8949C53.326 24.4195 54.2702 24.6818 55.267 24.6818C56.2637 24.6818 57.2473 24.4195 58.1522 23.908C59.0441 23.3966 59.7523 22.6621 60.29 21.6916C60.8146 20.7342 61.0769 19.5801 61.0769 18.2424C61.0769 16.9047 60.8146 15.7899 60.29 14.8194Z" fill="#FFFCF9"/>
<path d="M90.3349 7.34384V29.2195H84.7742V26.4522C84.066 27.3965 83.1348 28.1441 81.9938 28.6818C80.8528 29.2195 79.6069 29.4949 78.2692 29.4949C76.5642 29.4949 75.0429 29.1277 73.7314 28.4064C72.4199 27.685 71.3838 26.6227 70.6363 25.2063C69.8888 23.803 69.5084 22.1243 69.5084 20.1702V7.34384H75.0298V19.3833C75.0298 21.1145 75.4626 22.4522 76.3282 23.3965C77.1938 24.3276 78.3872 24.7998 79.8823 24.7998C81.3774 24.7998 82.6102 24.3276 83.4758 23.3965C84.3414 22.4653 84.7742 21.1276 84.7742 19.3833V7.34384H90.3349Z" fill="#FFFCF9"/>
<path d="M99.1758 0V29.2069H93.6544V0H99.1758Z" fill="#FFFCF9"/>
<path d="M102.925 12.3145C103.804 10.6095 104.997 9.28493 106.519 8.36689C108.027 7.44884 109.719 6.98982 111.594 6.98982C113.22 6.98982 114.65 7.31769 115.883 7.97344C117.103 8.62918 118.086 9.45542 118.821 10.4653V7.34393H124.381V29.2196H118.821V26.0195C118.112 27.0425 117.129 27.895 115.883 28.5638C114.637 29.2327 113.194 29.5737 111.555 29.5737C109.719 29.5737 108.04 29.1015 106.519 28.1573C105.011 27.213 103.804 25.8753 102.925 24.1441C102.047 22.4261 101.601 20.4457 101.601 18.2031C101.601 15.9866 102.033 14.0325 102.925 12.3145ZM118.021 14.8194C117.496 13.862 116.788 13.1276 115.883 12.603C114.991 12.0915 114.034 11.8292 112.998 11.8292C111.961 11.8292 111.03 12.0784 110.152 12.5768C109.286 13.0751 108.578 13.8096 108.04 14.767C107.502 15.7243 107.227 16.8653 107.227 18.1768C107.227 19.4883 107.502 20.6424 108.04 21.626C108.578 22.6097 109.286 23.3703 110.178 23.8949C111.057 24.4195 112.001 24.6818 112.998 24.6818C113.994 24.6818 114.978 24.4195 115.883 23.908C116.775 23.3966 117.483 22.6621 118.021 21.6916C118.545 20.7342 118.807 19.5801 118.807 18.2424C118.807 16.9047 118.545 15.7899 118.021 14.8194Z" fill="#FFFCF9"/>
<path d="M135.609 8.01296C136.75 7.35722 138.061 7.02934 139.53 7.02934V12.8261H138.074C136.343 12.8261 135.032 13.2327 134.14 14.0458C133.261 14.8589 132.815 16.2885 132.815 18.3082V29.2066H127.294V7.3441H132.815V10.7409C133.537 9.57363 134.468 8.6687 135.609 8.01296Z" fill="#FFFCF9"/>
<path d="M145.799 28.6039C144.382 27.9613 143.254 27.0826 142.428 25.9809C141.602 24.8793 141.143 23.6465 141.064 22.3088H146.625C146.73 23.1481 147.15 23.8432 147.871 24.4072C148.592 24.958 149.497 25.2334 150.573 25.2334C151.648 25.2334 152.448 25.0236 153.038 24.6039C153.628 24.1842 153.93 23.6465 153.93 22.9908C153.93 22.2825 153.563 21.7448 152.841 21.3907C152.12 21.0366 150.966 20.6432 149.392 20.2235C147.766 19.8301 146.428 19.4235 145.379 19.0038C144.343 18.5841 143.451 17.9415 142.69 17.0759C141.93 16.2104 141.563 15.0431 141.563 13.5611C141.563 12.3546 141.917 11.2398 142.612 10.2431C143.307 9.24634 144.304 8.45945 145.615 7.86928C146.913 7.29222 148.448 7.00369 150.218 7.00369C152.828 7.00369 154.9 7.65944 156.461 8.95781C158.009 10.2562 158.874 12.0136 159.032 14.23H153.746C153.668 13.3644 153.3 12.6693 152.658 12.1578C152.015 11.6464 151.15 11.3841 150.074 11.3841C149.077 11.3841 148.304 11.5677 147.766 11.9349C147.228 12.3021 146.953 12.8136 146.953 13.4693C146.953 14.2038 147.32 14.7677 148.054 15.148C148.789 15.5284 149.93 15.9218 151.491 16.3153C153.064 16.7087 154.376 17.1153 155.399 17.535C156.422 17.9546 157.314 18.6104 158.061 19.4891C158.809 20.3678 159.202 21.535 159.228 22.9776C159.228 24.2367 158.874 25.3777 158.179 26.3744C157.484 27.3711 156.487 28.158 155.176 28.722C153.877 29.2859 152.356 29.5744 150.612 29.5744C148.815 29.5613 147.215 29.2466 145.799 28.6039Z" fill="#FFFCF9"/>
</svg>
